<svg width="398" height="336" viewBox="0 0 398 336" fill="none" xmlns="http://www.w3.org/2000/svg">
<path d="M200 0L200 186L163 167.033L200 0Z" fill="#D9D9D9"/>
<path d="M380.697 304.437L217.736 215.214L251.638 192.744L380.697 304.437Z" fill="#D9D9D9"/>
<path d="M16.5811 301.191L181.469 215.582L181.239 256.253L16.5811 301.191Z" fill="#565656"/>
<path d="M200 0V186L235 166.421L200 0Z" fill="#565656"/>
<path d="M380.697 304.437L217.736 215.214L217.609 256.169L380.697 304.437Z" fill="#565656"/>
<path d="M16.5812 301.192L181.469 215.582L147.531 192.657L16.5812 301.192Z" fill="#D9D9D9"/>
<path d="M233.702 289.095C236.993 287.973 239.428 285.235 240.133 281.864L240.728 279.021L211.955 288.828C208.154 290.123 206.19 294.23 207.567 298.002L233.702 289.095Z" fill="#D9D9D9"/>
<path d="M161.94 295.323C158.724 294.247 155.265 294.901 152.753 297.059L150.533 298.966L180.532 308.996C184.241 310.236 188.099 308.187 189.149 304.419L161.94 295.323Z" fill="#D9D9D9"/>
<path d="M236.551 296.899C239.843 295.778 243.517 296.433 246.255 298.631L248.564 300.484L219.791 310.29C215.991 311.586 211.793 309.578 210.416 305.807L236.551 296.899Z" fill="#D9D9D9"/>
<path d="M164.112 287.527C160.896 286.451 158.36 283.794 157.377 280.467L156.507 277.527L186.506 287.557C190.215 288.797 192.371 292.856 191.321 296.624L164.112 287.527Z" fill="#D9D9D9"/>
<path d="M257.77 291.396L255.166 294C253.009 296.157 249.512 296.157 247.355 294L249.959 291.396C252.116 289.239 255.613 289.239 257.77 291.396Z" fill="#D9D9D9"/>
<path d="M141.774 289.555L144.533 292.159C146.819 294.316 150.525 294.316 152.81 292.159L150.051 289.555C147.765 287.398 144.059 287.398 141.774 289.555Z" fill="#D9D9D9"/>
<path d="M255.929 283.364C255.14 286.311 252.111 288.06 249.164 287.27L245.607 286.317C246.397 283.37 249.425 281.622 252.372 282.411L255.929 283.364Z" fill="#D9D9D9"/>
<path d="M143.725 281.523C144.561 284.47 147.647 286.25 150.617 285.499L154.662 284.476C153.826 281.529 150.74 279.749 147.77 280.5L143.725 281.523Z" fill="#D9D9D9"/>
<path d="M105.673 192.459C104.999 195.871 106.152 199.349 108.719 201.645L110.884 203.581L116.778 173.759C117.556 169.82 114.982 166.065 111.027 165.372L105.673 192.459Z" fill="#D9D9D9"/>
<path d="M136.16 127.198C138.7 124.95 139.863 121.628 139.25 118.374L138.709 115.497L115.023 136.462C112.095 139.055 111.94 143.42 114.678 146.213L136.16 127.198Z" fill="#D9D9D9"/>
<path d="M97.4893 191.025C96.8151 194.436 94.41 197.291 91.1381 198.563L88.3784 199.636L94.2724 169.815C95.0509 165.876 98.888 163.245 102.843 163.938L97.4893 191.025Z" fill="#D9D9D9"/>
<path d="M141.826 132.977C144.365 130.73 147.935 129.862 151.308 130.674L154.288 131.391L130.603 152.356C127.674 154.948 123.081 154.785 120.343 151.992L141.826 132.977Z" fill="#D9D9D9"/>
<path d="M91.6457 212.153L90.6926 208.596C89.903 205.649 91.6517 202.62 94.5984 201.831L95.5515 205.388C96.3411 208.334 94.5924 211.363 91.6457 212.153Z" fill="#D9D9D9"/>
<path d="M151.239 112.617L147.604 113.705C144.593 114.606 142.74 117.815 143.465 120.873L147.1 119.786C150.111 118.885 151.964 115.675 151.239 112.617Z" fill="#D9D9D9"/>
<path d="M99.522 214.574C97.3649 212.417 97.3649 208.92 99.522 206.762L102.126 204.159C104.283 206.316 104.283 209.813 102.126 211.97L99.522 214.574Z" fill="#D9D9D9"/>
<path d="M157.219 118.323C154.249 117.574 151.164 119.356 150.33 122.304L149.193 126.319C152.163 127.067 155.247 125.285 156.082 122.338L157.219 118.323Z" fill="#D9D9D9"/>
<path d="M257.407 132.689C254.772 130.421 251.177 129.709 247.914 130.811L245.162 131.74L268.202 151.57C271.245 154.189 275.782 153.8 278.335 150.701L257.407 132.689Z" fill="#D9D9D9"/>
<path d="M299.156 191.388C299.86 194.706 302.177 197.355 305.31 198.427L308.079 199.373L301.516 168.431C300.705 164.605 296.983 162.318 293.203 163.323L299.156 191.388Z" fill="#D9D9D9"/>
<path d="M262.69 126.276C260.055 124.008 258.757 120.508 259.263 117.034L259.69 114.104L282.729 133.934C285.773 136.553 286.17 141.189 283.617 144.288L262.69 126.276Z" fill="#D9D9D9"/>
<path d="M291.335 193.468C292.039 196.785 291.033 200.318 288.664 202.853L286.571 205.093L280.008 174.15C279.196 170.324 281.603 166.408 285.382 165.403L291.335 193.468Z" fill="#D9D9D9"/>
<path d="M247.189 110.776L250.754 111.7C253.707 112.466 255.48 115.481 254.714 118.434L251.149 117.509C248.196 116.744 246.423 113.729 247.189 110.776Z" fill="#D9D9D9"/>
<path d="M304.408 211.695L305.254 207.997C305.954 204.933 304.076 201.738 301.057 200.862L300.212 204.56C299.511 207.624 301.39 210.818 304.408 211.695Z" fill="#D9D9D9"/>
<path d="M241.199 116.435C244.14 115.622 247.182 117.346 247.996 120.286L248.977 123.835C246.037 124.648 242.994 122.924 242.181 119.984L241.199 116.435Z" fill="#D9D9D9"/>
<path d="M296.496 214.085C298.612 211.87 298.582 208.308 296.429 206.129L293.496 203.16C291.38 205.375 291.41 208.937 293.563 211.116L296.496 214.085Z" fill="#D9D9D9"/>
</svg>
