<svg width="62" height="76" viewBox="0 0 62 76" fill="none" xmlns="http://www.w3.org/2000/svg">
<path d="M31.026 75C30.936 71.217 19.569 67.974 16.823 66.284C16.331 65.43 14.891 63.721 13.073 63.721C12.032 61.86 9.08501 58.138 5.63101 58.138C6.54001 56.428 7.81201 52.088 5.63101 48.397C7.16501 47.219 8.39101 43.827 1.02901 39.681C0.839007 36.339 1.49501 29.119 5.63101 26.977C9.76701 24.835 10.422 18.527 10.233 15.64C11.161 19.97 12.46 30.486 10.233 37.915C8.00601 45.343 13.698 48.871 16.823 49.707C16.937 53.239 18.13 60.017 21.993 58.878C21.273 58.118 19.925 56.076 20.289 53.979C23.834 57.124 22.372 51.568 21.198 48.397C21.47 44.705 18.395 42.339 16.823 41.617C15.261 32.495 18.263 8.482 20.289 1C18.622 12.336 16.028 36.057 18.982 40.25C21.936 44.443 22.675 47.428 22.675 48.397C23.905 51.757 25.629 58.127 22.675 56.714C19.721 55.301 20.989 57.568 21.993 58.878C18.13 60.018 16.937 53.238 16.823 49.707C13.698 48.871 8.00601 45.343 10.233 37.915C12.46 30.486 11.161 19.97 10.233 15.64C10.649 19.228 10.21 27.136 5.11901 30.053C4.28601 30.603 2.71101 32.947 3.07401 37.915C5.93401 40.497 11.051 46.209 8.64201 48.397C9.36201 50.669 10.369 55.515 8.64201 56.714C10.119 57.302 13.073 58.913 13.073 60.644C14.858 61.271 18.403 62.969 18.3 64.746C22.997 66.968 32.117 72.129 31.026 75Z" fill="#7F1D1D"/>
<path d="M30.974 75C31.064 71.217 42.431 67.974 45.177 66.284C45.669 65.43 47.109 63.721 48.927 63.721C49.968 61.86 52.915 58.138 56.369 58.138C55.46 56.428 54.188 52.088 56.369 48.397C54.835 47.219 53.609 43.827 60.971 39.681C61.161 36.339 60.505 29.119 56.369 26.977C52.233 24.835 51.578 18.527 51.767 15.64C50.839 19.97 49.54 30.486 51.767 37.915C53.994 45.343 48.302 48.871 45.177 49.707C45.063 53.239 43.87 60.017 40.007 58.878C40.727 58.118 42.075 56.076 41.711 53.979C38.166 57.124 39.628 51.568 40.802 48.397C40.53 44.705 43.605 42.339 45.177 41.617C46.739 32.495 43.737 8.482 41.711 1C43.378 12.336 45.972 36.057 43.018 40.25C40.064 44.443 39.325 47.428 39.325 48.397C38.095 51.757 36.371 58.127 39.325 56.714C42.279 55.301 41.011 57.568 40.007 58.878C43.87 60.018 45.063 53.238 45.177 49.707C48.302 48.871 53.994 45.343 51.767 37.915C49.54 30.486 50.839 19.97 51.767 15.64C51.351 19.228 51.79 27.136 56.881 30.053C57.714 30.603 59.289 32.947 58.926 37.915C56.066 40.497 50.949 46.209 53.358 48.397C52.638 50.669 51.631 55.515 53.358 56.714C51.881 57.302 48.927 58.913 48.927 60.644C47.142 61.271 43.597 62.969 43.7 64.746C39.003 66.968 29.883 72.129 30.974 75Z" fill="#7F1D1D"/>
<path d="M10.233 15.64C10.422 18.527 9.76701 24.835 5.63101 26.977C1.49501 29.119 0.839007 36.339 1.02901 39.68C8.39201 43.827 7.16501 47.218 5.63101 48.396C7.81201 52.086 6.54001 56.428 5.63101 58.136C9.08501 58.136 12.031 61.859 13.073 63.72C14.891 63.72 16.331 65.429 16.823 66.283C19.569 67.973 30.936 71.216 31.026 74.999C32.117 72.128 22.996 66.967 18.3 64.745C18.403 62.968 14.858 61.27 13.073 60.643C13.073 58.912 10.119 57.301 8.64201 56.713C10.369 55.513 9.36201 50.668 8.64201 48.396C11.051 46.208 5.93401 40.496 3.07401 37.913C2.71101 32.946 4.28601 30.603 5.11901 30.053C10.209 27.135 10.649 19.228 10.233 15.64ZM10.233 15.64C11.161 19.97 12.46 30.486 10.233 37.914C8.00601 45.343 13.698 48.871 16.823 49.707C16.937 53.239 18.13 60.017 21.993 58.878M21.993 58.878C21.273 58.118 19.925 56.076 20.289 53.979C23.834 57.124 22.372 51.568 21.198 48.397C21.47 44.705 18.395 42.339 16.823 41.617C15.261 32.495 18.263 8.482 20.289 1M21.993 58.878C20.989 57.568 19.721 55.301 22.675 56.714C25.629 58.126 23.905 51.758 22.675 48.397C22.675 47.428 21.936 44.443 18.982 40.25C16.028 36.057 18.622 12.336 20.289 1M20.289 1C20.686 5.823 22.948 16.768 21.993 26.065C21.039 35.362 21.595 37.212 21.993 39.681C23.413 41.902 25.799 41.504 27.163 49.707C25.118 49.707 26.311 59.733 31.026 59.733M51.767 15.64C51.578 18.526 52.233 24.834 56.369 26.976C60.505 29.118 61.16 36.338 60.971 39.68C53.608 43.827 54.835 47.218 56.369 48.396C54.188 52.086 55.46 56.428 56.369 58.136C52.915 58.136 49.969 61.859 48.927 63.72C47.109 63.72 45.669 65.429 45.177 66.283C42.431 67.973 31.064 71.216 30.974 74.999C29.883 72.128 39.004 66.967 43.7 64.745C43.597 62.968 47.141 61.27 48.927 60.643C48.927 58.912 51.881 57.301 53.358 56.713C51.631 55.513 52.638 50.668 53.358 48.396C50.949 46.208 56.066 40.496 58.926 37.913C59.289 32.946 57.714 30.603 56.881 30.053C51.791 27.135 51.351 19.228 51.767 15.64ZM51.767 15.64C50.839 19.969 49.54 30.485 51.767 37.913C53.994 45.342 48.302 48.87 45.177 49.706C45.063 53.238 43.87 60.016 40.007 58.877M40.007 58.877C40.727 58.117 42.075 56.075 41.711 53.978C38.166 57.123 39.628 51.567 40.802 48.396C40.53 44.704 43.605 42.338 45.177 41.616C46.739 32.495 43.737 8.482 41.711 1M40.007 58.877C41.011 57.567 42.28 55.301 39.325 56.714C36.371 58.126 38.095 51.758 39.325 48.397C39.325 47.428 40.064 44.443 43.018 40.25C45.972 36.057 43.378 12.336 41.711 1M41.711 1C41.314 5.823 39.053 16.768 40.007 26.065C40.961 35.362 40.405 37.212 40.007 39.681C38.587 41.902 36.201 41.504 34.837 49.707C36.882 49.707 35.689 59.733 30.974 59.733" stroke="black"/>
<path d="M21 27C22.6 21 21 10.1667 20 5.5C17.6 30.7 18.3333 38.3333 19 39C23 45.4 23.3333 47.6667 23 48C26.2 56 24.6667 57.6667 23.5 57.5C22.7 57.9 21.8333 57 21.5 56.5C21.1 57.3 22.3333 58.5 23 59C22.6 59.4 21.5 59.5 21 59.5C17.4 59.5 16.1667 53.1667 16 50C9.2 47.6 8.83333 41.3333 9.5 38.5C11.5 36 11 15 10.5 21.5C10.1 26.7 6.66667 30 5 31C3.8 32.6 3.5 36 3.5 37.5C11.1 44.3 10.3333 47.6667 9 48.5C10.2 50.5 10.1667 54.6667 10 56.5C13.2 58.5 13.6667 59.6667 13.5 60C17.1 61.2 18.6667 63.5 19 64.5C23.4 66.1 28.8333 70.8333 31 73L30.5 60C24.9 58 25.5 52.1667 26.5 49.5C26.1 45.1 23 41.3333 21.5 40C20.7 37.2 20.8333 30.1667 21 27Z" fill="white" stroke="white" stroke-width="0.2"/>
<path d="M41 26.6593C39.4 20.6148 41 9.70123 42 5C44.4 30.3867 43.6667 38.0765 43 38.7481C39 45.1956 38.6667 47.479 39 47.8148C35.8 55.8741 37.3333 57.5531 38.5 57.3852C39.3 57.7882 40.1667 56.8815 40.5 56.3778C40.9 57.1837 39.6667 58.3926 39 58.8963C39.4 59.2993 40.5 59.4 41 59.4C44.6 59.4 45.8333 53.0198 46 49.8296C52.8 47.4119 53.1667 41.0988 52.5 38.2444C50.5 35.7259 51 14.5704 51.5 21.1185C51.9 26.357 55.3333 29.6815 57 30.6889C58.2 32.3007 58.5 35.7259 58.5 37.237C50.9 44.0874 51.6667 47.479 53 48.3185C51.8 50.3333 51.8333 54.5309 52 56.3778C48.8 58.3926 48.3333 59.5679 48.5 59.9037C44.9 61.1126 43.3333 63.4296 43 64.437C38.6 66.0489 33.1667 70.8173 31 73L31.5 59.9037C37.1 57.8889 36.5 52.0123 35.5 49.3259C35.9 44.8933 39 41.0988 40.5 39.7556C41.3 36.9348 41.1667 29.8494 41 26.6593Z" fill="white" stroke="white" stroke-width="0.2"/>
<path d="M31.5 60H30.5L31 71L31.5 60Z" fill="white" stroke="white" stroke-width="0.2"/>
</svg>
